<svg width="23" height="23" viewBox="0 0 23 23" fill="none" xmlns="http://www.w3.org/2000/svg">
<path d="M18.6109 24H20.4218C21.3382 24 22.0909 23.2909 22.2 22.3964L24 4.41818H18.5455V0H16.3964V4.41818H10.9745L11.3018 6.97091C13.1673 7.48364 14.9127 8.41091 15.96 9.43636C17.5309 10.9855 18.6109 12.5891 18.6109 15.2073V24ZM0 22.9091V21.8182H16.3964V22.9091C16.3964 23.4982 15.9055 24 15.2727 24H1.09091C0.490909 24 0 23.4982 0 22.9091ZM16.3964 15.2727C16.3964 6.54545 0 6.54545 0 15.2727H16.3964ZM0 17.4545H16.3636V19.6364H0V17.4545Z" fill="#474851"/>
</svg>
