<svg width="35" height="35" viewBox="0 0 35 35" fill="none" xmlns="http://www.w3.org/2000/svg">
<path d="M6.7375 26.425C8.225 25.2875 9.8875 24.3903 11.725 23.7335C13.5625 23.0778 15.4875 22.75 17.5 22.75C19.5125 22.75 21.4375 23.0778 23.275 23.7335C25.1125 24.3903 26.775 25.2875 28.2625 26.425C29.2833 25.2292 30.0784 23.8729 30.6478 22.3562C31.2159 20.8396 31.5 19.2208 31.5 17.5C31.5 13.6208 30.1367 10.3174 27.4102 7.58975C24.6826 4.86325 21.3792 3.5 17.5 3.5C13.6208 3.5 10.318 4.86325 7.5915 7.58975C4.86383 10.3174 3.5 13.6208 3.5 17.5C3.5 19.2208 3.78467 20.8396 4.354 22.3562C4.92217 23.8729 5.71667 25.2292 6.7375 26.425ZM17.5 19.25C15.7792 19.25 14.3278 18.6597 13.146 17.479C11.9653 16.2972 11.375 14.8458 11.375 13.125C11.375 11.4042 11.9653 9.95283 13.146 8.771C14.3278 7.59033 15.7792 7 17.5 7C19.2208 7 20.6722 7.59033 21.854 8.771C23.0347 9.95283 23.625 11.4042 23.625 13.125C23.625 14.8458 23.0347 16.2972 21.854 17.479C20.6722 18.6597 19.2208 19.25 17.5 19.25ZM17.5 35C15.0792 35 12.8042 34.5403 10.675 33.621C8.54583 32.7028 6.69375 31.4563 5.11875 29.8813C3.54375 28.3062 2.29717 26.4542 1.379 24.325C0.459667 22.1958 0 19.9208 0 17.5C0 15.0792 0.459667 12.8042 1.379 10.675C2.29717 8.54583 3.54375 6.69375 5.11875 5.11875C6.69375 3.54375 8.54583 2.29658 10.675 1.37725C12.8042 0.459083 15.0792 0 17.5 0C19.9208 0 22.1958 0.459083 24.325 1.37725C26.4542 2.29658 28.3062 3.54375 29.8813 5.11875C31.4563 6.69375 32.7028 8.54583 33.621 10.675C34.5403 12.8042 35 15.0792 35 17.5C35 19.9208 34.5403 22.1958 33.621 24.325C32.7028 26.4542 31.4563 28.3062 29.8813 29.8813C28.3062 31.4563 26.4542 32.7028 24.325 33.621C22.1958 34.5403 19.9208 35 17.5 35Z" fill="white"/>
</svg>
