<svg width="25" height="18" viewBox="0 0 25 18" fill="#343434" xmlns="http://www.w3.org/2000/svg">
<path d="M3.75 4.66875V2.25C3.75 1.0125 4.875 0 6.25 0H18.75C20.125 0 21.25 1.0125 21.25 2.25V4.68C19.8 5.14125 18.75 6.37875 18.75 7.84125V10.125H6.25V7.83C6.25 6.37875 5.2 5.13 3.75 4.66875ZM22.5 5.625C21.125 5.625 20 6.6375 20 7.875V11.25H5V7.875C5 6.6375 3.8875 5.625 2.5 5.625C1.1125 5.625 0 6.6375 0 7.875V13.5C0 14.7375 1.125 15.75 2.5 15.75V18H5V15.75H20V18H22.5V15.75C23.875 15.75 25 14.7375 25 13.5V7.875C25 6.6375 23.875 5.625 22.5 5.625Z" />
</svg>
