<svg width="19" height="22" viewBox="0 0 19 22" fill="none" xmlns="http://www.w3.org/2000/svg">
<path d="M6.5 2.5V0.5H12.5V2.5H6.5ZM8.5 13.5H10.5V7.5H8.5V13.5ZM9.5 21.5C8.26667 21.5 7.10417 21.2625 6.0125 20.7875C4.92083 20.3125 3.96667 19.6667 3.15 18.85C2.33333 18.0333 1.6875 17.0792 1.2125 15.9875C0.7375 14.8958 0.5 13.7333 0.5 12.5C0.5 11.2667 0.7375 10.1042 1.2125 9.0125C1.6875 7.92083 2.33333 6.96667 3.15 6.15C3.96667 5.33333 4.92083 4.6875 6.0125 4.2125C7.10417 3.7375 8.26667 3.5 9.5 3.5C10.5333 3.5 11.525 3.66667 12.475 4C13.425 4.33333 14.3167 4.81667 15.15 5.45L16.55 4.05L17.95 5.45L16.55 6.85C17.1833 7.68333 17.6667 8.575 18 9.525C18.3333 10.475 18.5 11.4667 18.5 12.5C18.5 13.7333 18.2625 14.8958 17.7875 15.9875C17.3125 17.0792 16.6667 18.0333 15.85 18.85C15.0333 19.6667 14.0792 20.3125 12.9875 20.7875C11.8958 21.2625 10.7333 21.5 9.5 21.5ZM9.5 19.5C11.4333 19.5 13.0833 18.8167 14.45 17.45C15.8167 16.0833 16.5 14.4333 16.5 12.5C16.5 10.5667 15.8167 8.91667 14.45 7.55C13.0833 6.18333 11.4333 5.5 9.5 5.5C7.56667 5.5 5.91667 6.18333 4.55 7.55C3.18333 8.91667 2.5 10.5667 2.5 12.5C2.5 14.4333 3.18333 16.0833 4.55 17.45C5.91667 18.8167 7.56667 19.5 9.5 19.5Z" fill="white" fill-opacity="0.8"/>
</svg>
