<svg width="18" height="18" viewBox="0 0 18 18" fill="none" xmlns="http://www.w3.org/2000/svg">
<path d="M6.56781 0.25C8.29172 0.25 9.94502 0.934819 11.164 2.15381C12.383 3.37279 13.0678 5.02609 13.0678 6.75C13.0678 8.36 12.4778 9.84 11.5078 10.98L11.7778 11.25H12.5678L17.5678 16.25L16.0678 17.75L11.0678 12.75V11.96L10.7978 11.69C9.65781 12.66 8.17781 13.25 6.56781 13.25C4.8439 13.25 3.1906 12.5652 1.97162 11.3462C0.752629 10.1272 0.0678101 8.47391 0.0678101 6.75C0.0678101 5.02609 0.752629 3.37279 1.97162 2.15381C3.1906 0.934819 4.8439 0.25 6.56781 0.25ZM6.56781 2.25C4.06781 2.25 2.06781 4.25 2.06781 6.75C2.06781 9.25 4.06781 11.25 6.56781 11.25C9.06781 11.25 11.0678 9.25 11.0678 6.75C11.0678 4.25 9.06781 2.25 6.56781 2.25Z" fill="url(#paint0_linear_263_678)"/>
<defs>
<linearGradient id="paint0_linear_263_678" x1="8.81781" y1="0.25" x2="8.81781" y2="17.75" gradientUnits="userSpaceOnUse">
<stop stop-color="#784BA0"/>
<stop offset="0.0001" stop-color="#784BA0"/>
<stop offset="1" stop-color="#FF3CAC"/>
</linearGradient>
</defs>
</svg>
