<svg width="24" height="24" viewBox="0 0 24 24" fill="none" xmlns="http://www.w3.org/2000/svg">
<path d="M21.8182 17.4545V7.63636H6.54545V17.4545H21.8182ZM21.8182 2.18182C23.0182 2.18182 24 3.16364 24 4.36364V17.4545C24 18.6545 23.0182 19.6364 21.8182 19.6364H6.54545C5.33455 19.6364 4.36364 18.6545 4.36364 17.4545V4.36364C4.36364 3.16364 5.34545 2.18182 6.54545 2.18182H7.63636V0H9.81818V2.18182H18.5455V0H20.7273V2.18182H21.8182ZM2.18182 21.8182H17.4545V24H2.18182C0.970909 24 0 23.0182 0 21.8182V8.72727H2.18182V21.8182Z" fill="#474851"/>
</svg>
