<svg width="24" height="19" viewBox="0 0 24 19" fill="none" xmlns="http://www.w3.org/2000/svg">
<path d="M22.875 0H22.5V0.976562C22.5 1.29883 22.2469 1.5625 21.9375 1.5625H20.0625C19.7531 1.5625 19.5 1.29883 19.5 0.976562V0H4.5V0.976562C4.5 1.29883 4.24687 1.5625 3.9375 1.5625H2.0625C1.75313 1.5625 1.5 1.29883 1.5 0.976562V0H1.125C0.501562 0 0 0.522461 0 1.17188V17.5781C0 18.2275 0.501562 18.75 1.125 18.75H1.5V17.7734C1.5 17.4512 1.75313 17.1875 2.0625 17.1875H3.9375C4.24687 17.1875 4.5 17.4512 4.5 17.7734V18.75H19.5V17.7734C19.5 17.4512 19.7531 17.1875 20.0625 17.1875H21.9375C22.2469 17.1875 22.5 17.4512 22.5 17.7734V18.75H22.875C23.4984 18.75 24 18.2275 24 17.5781V1.17188C24 0.522461 23.4984 0 22.875 0ZM4.5 15.0391C4.5 15.3613 4.24687 15.625 3.9375 15.625H2.0625C1.75313 15.625 1.5 15.3613 1.5 15.0391V13.0859C1.5 12.7637 1.75313 12.5 2.0625 12.5H3.9375C4.24687 12.5 4.5 12.7637 4.5 13.0859V15.0391ZM4.5 10.3516C4.5 10.6738 4.24687 10.9375 3.9375 10.9375H2.0625C1.75313 10.9375 1.5 10.6738 1.5 10.3516V8.39844C1.5 8.07617 1.75313 7.8125 2.0625 7.8125H3.9375C4.24687 7.8125 4.5 8.07617 4.5 8.39844V10.3516ZM4.5 5.66406C4.5 5.98633 4.24687 6.25 3.9375 6.25H2.0625C1.75313 6.25 1.5 5.98633 1.5 5.66406V3.71094C1.5 3.38867 1.75313 3.125 2.0625 3.125H3.9375C4.24687 3.125 4.5 3.38867 4.5 3.71094V5.66406ZM17.25 15.8203C17.25 16.1426 16.9969 16.4062 16.6875 16.4062H7.3125C7.00313 16.4062 6.75 16.1426 6.75 15.8203V11.1328C6.75 10.8105 7.00313 10.5469 7.3125 10.5469H16.6875C16.9969 10.5469 17.25 10.8105 17.25 11.1328V15.8203ZM17.25 7.61719C17.25 7.93945 16.9969 8.20312 16.6875 8.20312H7.3125C7.00313 8.20312 6.75 7.93945 6.75 7.61719V2.92969C6.75 2.60742 7.00313 2.34375 7.3125 2.34375H16.6875C16.9969 2.34375 17.25 2.60742 17.25 2.92969V7.61719ZM22.5 15.0391C22.5 15.3613 22.2469 15.625 21.9375 15.625H20.0625C19.7531 15.625 19.5 15.3613 19.5 15.0391V13.0859C19.5 12.7637 19.7531 12.5 20.0625 12.5H21.9375C22.2469 12.5 22.5 12.7637 22.5 13.0859V15.0391ZM22.5 10.3516C22.5 10.6738 22.2469 10.9375 21.9375 10.9375H20.0625C19.7531 10.9375 19.5 10.6738 19.5 10.3516V8.39844C19.5 8.07617 19.7531 7.8125 20.0625 7.8125H21.9375C22.2469 7.8125 22.5 8.07617 22.5 8.39844V10.3516ZM22.5 5.66406C22.5 5.98633 22.2469 6.25 21.9375 6.25H20.0625C19.7531 6.25 19.5 5.98633 19.5 5.66406V3.71094C19.5 3.38867 19.7531 3.125 20.0625 3.125H21.9375C22.2469 3.125 22.5 3.38867 22.5 3.71094V5.66406Z" fill="url(#paint0_linear_258_4250)"/>
<defs>
<linearGradient id="paint0_linear_258_4250" x1="-1.32501e-08" y1="18.375" x2="24" y2="18.375" gradientUnits="userSpaceOnUse">
<stop stop-color="#984BA0"/>
<stop offset="0.0001" stop-color="#784BA0"/>
<stop offset="1" stop-color="#FF3CAC"/>
</linearGradient>
</defs>
</svg>
