<svg width="24" height="22" viewBox="0 0 24 22" fill="none" xmlns="http://www.w3.org/2000/svg">
<path d="M14.2857 6.11111H12.5714V12.2222L17.4629 15.3267L18.2857 13.8478L14.2857 11.3056V6.11111ZM13.7143 0C10.9863 0 8.37013 1.15893 6.44119 3.22183C4.51224 5.28473 3.42857 8.08262 3.42857 11H0L4.52571 15.9256L9.14286 11H5.71429C5.71429 8.73093 6.55714 6.55479 8.05743 4.95031C9.55772 3.34583 11.5926 2.44444 13.7143 2.44444C15.836 2.44444 17.8708 3.34583 19.3711 4.95031C20.8714 6.55479 21.7143 8.73093 21.7143 11C21.7143 13.2691 20.8714 15.4452 19.3711 17.0497C17.8708 18.6542 15.836 19.5556 13.7143 19.5556C11.5086 19.5556 9.50857 18.59 8.06857 17.0378L6.44571 18.7733C8.30857 20.7778 10.8571 22 13.7143 22C16.4422 22 19.0584 20.8411 20.9874 18.7782C22.9163 16.7153 24 13.9174 24 11C24 8.08262 22.9163 5.28473 20.9874 3.22183C19.0584 1.15893 16.4422 0 13.7143 0Z" fill="#474851"/>
</svg>
