<svg width="22" height="22" viewBox="0 0 22 22" fill="none" xmlns="http://www.w3.org/2000/svg">
<path d="M8.56218 3.78702C9.48689 1.39466 9.94925 0.198479 10.7004 0.0326939C10.8979 -0.010898 11.1021 -0.010898 11.2996 0.0326939C12.0508 0.198479 12.5131 1.39466 13.4378 3.78702C13.9637 5.14751 14.2266 5.82776 14.7186 6.29043C14.8566 6.4202 15.0064 6.53578 15.1659 6.63555C15.7345 6.99122 16.4444 7.0572 17.8641 7.18915C20.2674 7.41251 21.4691 7.5242 21.8361 8.23523C21.9121 8.3825 21.9637 8.54194 21.9889 8.70693C22.1106 9.50359 21.2272 10.3377 19.4604 12.0058L18.9697 12.469C18.1437 13.2489 17.7307 13.6388 17.4918 14.1255C17.3485 14.4174 17.2525 14.7318 17.2074 15.0561C17.1324 15.5966 17.2533 16.1623 17.4952 17.2937L17.5816 17.6979C18.0154 19.7269 18.2323 20.7413 17.9616 21.24C17.7184 21.6879 17.2704 21.9747 16.7755 21.9992C16.2246 22.0265 15.4484 21.3701 13.8959 20.0572C12.8731 19.1923 12.3617 18.7598 11.7939 18.5909C11.2751 18.4365 10.7249 18.4365 10.2061 18.5909C9.63835 18.7598 9.12693 19.1923 8.10409 20.0572C6.55161 21.3701 5.77536 22.0265 5.22446 21.9992C4.72961 21.9747 4.28165 21.6879 4.03845 21.24C3.7677 20.7413 3.98459 19.7269 4.41837 17.6979L4.5048 17.2937C4.74668 16.1623 4.86762 15.5966 4.79257 15.0561C4.74755 14.7318 4.65146 14.4174 4.50816 14.1255C4.26928 13.6388 3.85627 13.2489 3.03026 12.469L2.53962 12.0058C0.772817 10.3377 -0.110586 9.50359 0.0110717 8.70693C0.0362681 8.54194 0.0879408 8.3825 0.163941 8.23523C0.5309 7.5242 1.73257 7.41251 4.1359 7.18915C5.55561 7.0572 6.26547 6.99122 6.83411 6.63555C6.99361 6.53578 7.14341 6.4202 7.2814 6.29043C7.77339 5.82776 8.03632 5.14751 8.56218 3.78702Z" fill="#FBC300"/>
</svg>
