<svg width="24" height="24" viewBox="0 0 25 24" fill="none" xmlns="http://www.w3.org/2000/svg">
<path d="M12.5 0C14.0913 0 15.6174 0.632141 16.7426 1.75736C17.8679 2.88258 18.5 4.4087 18.5 6C18.5 7.5913 17.8679 9.11742 16.7426 10.2426C15.6174 11.3679 14.0913 12 12.5 12C10.9087 12 9.38258 11.3679 8.25736 10.2426C7.13214 9.11742 6.5 7.5913 6.5 6C6.5 4.4087 7.13214 2.88258 8.25736 1.75736C9.38258 0.632141 10.9087 0 12.5 0ZM12.5 3C11.7044 3 10.9413 3.31607 10.3787 3.87868C9.81607 4.44129 9.5 5.20435 9.5 6C9.5 6.79565 9.81607 7.55871 10.3787 8.12132C10.9413 8.68393 11.7044 9 12.5 9C13.2956 9 14.0587 8.68393 14.6213 8.12132C15.1839 7.55871 15.5 6.79565 15.5 6C15.5 5.20435 15.1839 4.44129 14.6213 3.87868C14.0587 3.31607 13.2956 3 12.5 3ZM12.5 13.5C16.505 13.5 24.5 15.495 24.5 19.5V24H0.5V19.5C0.5 15.495 8.495 13.5 12.5 13.5ZM12.5 16.35C8.045 16.35 3.35 18.54 3.35 19.5V21.15H21.65V19.5C21.65 18.54 16.955 16.35 12.5 16.35Z" fill="#474851"/>
</svg>
